{"title":"Catch..44.2011.BRRip.720p.x264.Feel-Free","uid":6858850,"size":2422394826,"categoryP":"video","categoryS":"hd___movies","magnet":"?xt=urn:btih:3cfa4455f614a732619d6faf4854448b9790c451&amp;dn=Catch..44.2011.BRRip.720p.x264.Feel-Free&amp;tr=udp%3A%2F%2Ftracker.openbittorrent.com%3A80&amp;tr=udp%3A%2F%2Fopen.demonii.com%3A1337&amp;tr=udp%3A%2F%2Ftracker.coppersurfer.tk%3A6969&amp;tr=udp%3A%2F%2Fexodus.desync.com%3A6969","seeders":0,"leechers":1,"uploader":"Hackulus","files":-1,"time":1322808470,"description":"Genre:Action | Drama | Western\nLanguage:English\nIMDb:http://www.imdb.com/title/tt1886493/\nSource:1080p.BluRay.x264.DTS-HDChina Thanks!\n\nFormat : MPEG-4\nFormat profile : Base Media\nCodec ID : isom\nFile size : 2.25 GiB\nDuration : 1h 33mn\nOverall bit rate : 3 433 Kbps\n\nVideo\nID : 1\nFormat : AVC\nFormat/Info : Advanced Video Codec\nFormat profile : &lt;a class=&quot;__cf_email__&quot; href=&quot;/cdn-cgi/l/email-protection&quot; data-cfemail=&quot;fab2939d92bab6cfd4cb&quot;&gt;[email&amp;#160;protected]&lt;/a&gt;&lt;script cf-hash='f9e31' type=&quot;text/javascript&quot;&gt;\n/* &lt;![CDATA[ */!function(){try{var t=&quot;currentScript&quot;in document?document.currentScript:function(){for(var t=document.getElementsByTagName(&quot;script&quot;),e=t.length;e--;)if(t[e].getAttribute(&quot;cf-hash&quot;))return t[e]}();if(t&amp;&amp;t.previousSibling){var e,r,n,i,c=t.previousSibling,a=c.getAttribute(&quot;data-cfemail&quot;);if(a){for(e=&quot;&quot;,r=parseInt(a.substr(0,2),16),n=2;a.length-n;n+=2)i=parseInt(a.substr(n,2),16)^r,e+=String.fromCharCode(i);e=document.createTextNode(e),c.parentNode.replaceChild(e,c)}}}catch(u){}}();/* ]]&gt; */&lt;/script&gt;\nFormat settings, CABAC : Yes\nFormat settings, ReFrames : 3 frames\nFormat settings, GOP : N=1\nCodec ID : avc1\nCodec ID/Info : Advanced Video Coding\nDuration : 1h 33mn\nBit rate mode : Variable\nBit rate : 3 000 Kbps\nMaximum bit rate : 14.5 Mbps\nWidth : 1 280 pixels\nHeight : 536 pixels\nDisplay aspect ratio : 2.35:1\nFrame rate mode : Constant\nFrame rate : 23.976 fps\nColor space : YUV\nChroma subsampling : 4:2:0\nBit depth : 8 bits\nScan type : Progressive\nBits/(Pixel*Frame) : 0.182\nStream size : 1.97 GiB (88%)\nWriting library : x264\n\nAudio\nID : 2\nFormat : AAC\nFormat/Info : Advanced Audio Codec\nFormat version : Version 4\nFormat profile : LC\nFormat settings, SBR : No\nCodec ID : 40\nDuration : 1h 33mn\nBit rate mode : Variable\nBit rate : 424 Kbps\nMaximum bit rate : 546 Kbps\nChannel(s) : 6 channels\nChannel positions : Front: L C R, Side: L R, LFE\nSampling rate : 48.0 KHz\nStream size : 284 MiB (12%)\n &lt;a href=&quot;\nhttp://img17.imageshack.us/img17/9509/vlcsnap00003hd.png&quot; rel=&quot;nofollow&quot; target=&quot;_NEW&quot;&gt;\nhttp://img17.imageshack.us/img17/9509/vlcsnap00003hd.png&lt;/a&gt; &lt;a href=&quot;\nhttp://img684.imageshack.us/img684/1194/vlcsnap00004uf.png&quot; rel=&quot;nofollow&quot; target=&quot;_NEW&quot;&gt;\nhttp://img684.imageshack.us/img684/1194/vlcsnap00004uf.png&lt;/a&gt; &lt;a href=&quot;\nhttp://img805.imageshack.us/img805/8872/vlcsnap00005s.png&quot; rel=&quot;nofollow&quot; target=&quot;_NEW&quot;&gt;\nhttp://img805.imageshack.us/img805/8872/vlcsnap00005s.png&lt;/a&gt; &lt;a href=&quot;\nhttp://img707.imageshack.us/img707/4092/vlcsnap00006nu.png&quot; rel=&quot;nofollow&quot; target=&quot;_NEW&quot;&gt;\nhttp://img707.imageshack.us/img707/4092/vlcsnap00006nu.png&lt;/a&gt; &lt;a href=&quot;\nhttp://img818.imageshack.us/img818/1336/vlcsnap00007c.png&quot; rel=&quot;nofollow&quot; target=&quot;_NEW&quot;&gt;\nhttp://img818.imageshack.us/img818/1336/vlcsnap00007c.png&lt;/a&gt;","torrent":{"xt":"urn:btih:3cfa4455f614a732619d6faf4854448b9790c451","amp;dn":"Catch..44.2011.BRRip.720p.x264.Feel-Free","amp;tr":["udp%3A%2F%2Ftracker.openbittorrent.com%3A80","udp%3A%2F%2Fopen.demonii.com%3A1337","udp%3A%2F%2Ftracker.coppersurfer.tk%3A6969","udp%3A%2F%2Fexodus.desync.com%3A6969"],"infoHash":"3cfa4455f614a732619d6faf4854448b9790c451","infoHashBuffer":{"type":"Buffer","data":[60,250,68,85,246,20,167,50,97,157,111,175,72,84,68,139,151,144,196,81]},"announce":[],"urlList":[]}}